<svg width="139" height="232" viewBox="0 0 139 232" fill="none" xmlns="http://www.w3.org/2000/svg">
<path d="M69.0687 229.333L69.068 230.306L69.6145 229.501L138.364 128.255L137.956 127.836L71.2239 170.543L71.2219 170.545L69.2083 171.811L69.0685 171.899L69.0687 172.064C69.0821 191.16 69.0821 210.25 69.0687 229.333Z" fill="#74ACDF" stroke="white" stroke-width="0.597412"/>
<path d="M1.34189 128.035L0.932599 128.453C23.6409 162.129 46.3695 195.806 69.1181 229.482L69.6644 230.29V229.314V172.105V171.942L69.527 171.853C46.792 157.261 24.0635 142.654 1.34189 128.035Z" fill="#74ACDF" stroke="white" stroke-width="0.597412"/>
<path fill-rule="evenodd" clip-rule="evenodd" d="M69.3674 229.333L138.117 128.087L71.3829 170.796L69.3674 172.064C69.3808 191.16 69.3808 210.25 69.3674 229.333Z" fill="#74ACDF"/>
<path fill-rule="evenodd" clip-rule="evenodd" d="M1.18026 128.286C23.8885 161.962 46.6171 195.638 69.3657 229.314V172.105C46.6305 157.512 23.902 142.906 1.18026 128.286Z" fill="#74ACDF"/>
<path d="M88.7086 52.7405L100.517 42.5081L131.26 101.045L80.3221 64.6526L80.1056 64.4979L79.9271 64.6951C77.7813 67.0647 75.6403 69.4937 73.4995 71.9226C72.2305 73.3623 70.9616 74.802 69.6918 76.2291C69.5901 70.0528 69.507 63.8704 69.4425 57.6819L69.4363 57.0938L68.9651 57.4456L10.362 101.197C29.922 67.6906 49.4755 34.1905 69.0225 0.696684L88.2328 52.6184L88.3825 53.023L88.7086 52.7405Z" fill="#74ACDF" stroke="white" stroke-width="0.597412"/>
<path d="M80.4672 118.748L80.6379 118.862L80.8058 118.743L110.553 97.7223L138.027 115.181L69.705 155.318L1.57073 117.484L27.7454 99.8234L56.3397 119.262L56.5045 119.373L56.6712 119.264L69.1027 111.132L80.4672 118.748Z" fill="#74ACDF" stroke="white" stroke-width="0.597412"/>
<path d="M79.7543 92.9849C79.7543 98.8993 74.874 103.705 68.8405 103.705C62.807 103.705 57.9272 98.8993 57.9272 92.9849C57.9272 87.0706 62.807 82.265 68.8405 82.265C74.874 82.265 79.7543 87.0706 79.7543 92.9849Z" fill="#F0B410" stroke="white" stroke-width="0.746765"/>
</svg>
